# xmcd
# Track frame offsets:
# 150
# 16565
# 32445
# 46747
# 63765
# 77665
# 94825
# 113712
# 129502
# 145312
#
# Disc length: 2235 seconds
# Revision: 0
# Processed by: cddbd v1.5.1PL0 Copyright (c) Steve Scherf et al.
# Submitted via: VisiTrax 2.9.10.228 - For more info visit www.synapsa.com
#
DISCID=6e08b90a
DTITLE=Wendy Manley - Still Waters Run Deep
DYEAR=1996
DGENRE=Folk/Country
TTITLE0=Time And Time Again
TTITLE1=Someday You'Ll Know
TTITLE2=For Now And All Time
TTITLE3=Love Lifted Me Away
TTITLE4=This World Is Uncertain
TTITLE5=Precious Memories
TTITLE6=Poor Wayfarin Stranger
TTITLE7=You Are My Children
TTITLE8=Morning Light
TTITLE9=Still Waters Run Deep
EXTD=
EXTT0=
EXTT1=
EXTT2=
EXTT3=
EXTT4=
EXTT5=
EXTT6=
EXTT7=
EXTT8=
EXTT9=
PLAYORDER=
